<?xml version="1.0" standalone="no"?>
<!DOCTYPE svg PUBLIC "-//W3C//DTD SVG 20010904//EN"
 "http://www.w3.org/TR/2001/REC-SVG-20010904/DTD/svg10.dtd">
<svg version="1.0" xmlns="http://www.w3.org/2000/svg"
 width="512.000000pt" height="512.000000pt" viewBox="0 0 512.000000 512.000000"
 preserveAspectRatio="xMidYMid meet">

<g transform="translate(0.000000,512.000000) scale(0.100000,-0.100000)"
fill="#000000" stroke="none">
<path d="M2320 5109 c-491 -47 -981 -246 -1366 -557 -599 -482 -954 -1224
-954 -1992 0 -577 204 -1155 568 -1606 482 -599 1224 -954 1992 -954 577 0
1155 204 1606 568 599 482 954 1224 954 1992 0 577 -204 1155 -568 1606 -433
538 -1071 879 -1767 944 -125 11 -340 11 -465 -1z m-1829 -2008 l29 -29 0
-196 0 -196 110 0 c174 0 194 16 328 250 48 85 100 162 115 174 24 18 45 22
141 24 96 3 115 1 130 -13 10 -10 14 -25 11 -34 -3 -9 -50 -96 -103 -195 -104
-192 -160 -265 -222 -292 -41 -18 -52 -34 -24 -34 36 0 141 -128 257 -313 64
-103 117 -196 117 -207 0 -30 -31 -40 -132 -40 -98 0 -157 18 -189 56 -8 10
-51 75 -94 144 -148 237 -167 252 -332 258 l-113 5 0 -196 c0 -126 -4 -205
-11 -221 -17 -36 -67 -49 -162 -44 -72 4 -83 8 -104 32 l-23 27 0 505 0 506
29 29 c28 28 33 29 121 29 88 0 93 -1 121 -29z m1238 12 c19 -17 21 -29 23
-180 l3 -163 45 30 c79 53 146 73 241 73 71 0 94 -4 145 -27 104 -48 161 -123
183 -241 6 -32 11 -173 11 -316 0 -226 -2 -258 -17 -270 -26 -22 -197 -25
-228 -5 l-25 16 0 258 c-1 340 -15 382 -131 398 -55 8 -132 -23 -192 -76 l-37
-32 0 -273 c0 -241 -2 -274 -17 -286 -11 -10 -46 -14 -118 -14 -72 0 -107 4
-118 14 -15 12 -17 63 -17 547 l0 533 22 15 c34 24 198 22 227 -1z m1089 1
l22 -15 0 -533 c0 -484 -2 -535 -17 -547 -11 -10 -46 -14 -118 -14 -72 0 -107
4 -118 14 -15 12 -17 63 -17 547 l0 533 22 15 c16 12 47 16 113 16 66 0 97 -4
113 -16z m1470 0 c21 -14 22 -22 22 -145 0 -73 4 -129 9 -129 5 0 21 4 34 9
57 22 188 32 261 21 143 -22 233 -86 293 -208 l38 -76 0 -150 c0 -143 -1 -154
-27 -208 -54 -116 -118 -172 -243 -211 -141 -44 -458 -23 -591 40 l-39 18 -3
510 c-3 602 -17 545 132 545 67 0 98 -4 114 -16z m-664 -264 c166 -52 248
-161 269 -357 16 -154 42 -143 -331 -143 l-304 0 7 -37 c17 -96 82 -143 196
-143 81 0 113 11 157 53 32 31 37 32 126 35 113 5 132 -7 121 -72 -9 -61 -35
-97 -93 -132 -73 -44 -153 -59 -317 -59 -168 0 -237 19 -327 90 -171 134 -194
485 -42 654 55 61 162 117 249 131 81 12 213 3 289 -20z"/>
<path d="M4373 2674 l-63 -15 0 -230 c0 -209 2 -230 18 -237 9 -4 67 -7 129
-7 129 0 152 10 190 84 43 85 40 271 -7 347 -40 64 -147 87 -267 58z"/>
<path d="M3350 2678 c-47 -24 -90 -88 -90 -135 l0 -23 180 0 180 0 0 23 c0 12
-10 43 -22 67 -28 55 -89 90 -158 90 -28 0 -63 -9 -90 -22z"/>
</g>
</svg>
